<?xml version="1.0" standalone="no"?>
<!DOCTYPE svg PUBLIC "-//W3C//DTD SVG 20010904//EN"
 "http://www.w3.org/TR/2001/REC-SVG-20010904/DTD/svg10.dtd">
<svg version="1.0" xmlns="http://www.w3.org/2000/svg"
 width="1024.000000pt" height="1024.000000pt" viewBox="0 0 1024.000000 1024.000000"
 preserveAspectRatio="xMidYMid meet">
<metadata>
Created by potrace 1.14, written by Peter Selinger 2001-2017
</metadata>
<g transform="translate(0.000000,1024.000000) scale(0.100000,-0.100000)"
fill="#cf4646" stroke="none">
<path d="M2309 9645 c-292 -46 -546 -214 -642 -426 -56 -122 -67 -183 -83
-429 -22 -359 -38 -490 -99 -780 -25 -117 -85 -359 -109 -440 -8 -25 -24 -81
-36 -125 -12 -44 -30 -107 -40 -140 -10 -33 -30 -100 -45 -150 -15 -49 -36
-119 -47 -155 -35 -111 -332 -1001 -423 -1265 -167 -484 -221 -657 -299 -950
-185 -701 -270 -1282 -271 -1865 0 -310 8 -413 51 -641 118 -635 319 -970 751
-1253 549 -359 1343 -422 1818 -144 189 111 293 225 343 378 25 74 25 83 33
515 4 261 12 464 18 500 26 129 119 441 156 522 8 17 15 34 15 38 0 15 113
230 164 312 142 229 351 427 559 530 65 32 157 66 164 60 1 -2 -3 -45 -8 -97
-15 -131 -15 -481 0 -620 67 -643 325 -1198 752 -1620 322 -319 751 -567 1179
-681 273 -74 518 -103 860 -103 645 -1 1102 106 1560 366 249 142 393 251 591
448 345 343 578 746 708 1222 135 497 134 1021 -3 1305 -69 143 -193 250 -315
273 -179 34 -401 -116 -520 -350 -41 -80 -84 -206 -96 -280 -27 -169 -105
-409 -184 -568 -126 -254 -295 -415 -511 -488 -84 -28 -281 -26 -375 4 -216
68 -349 208 -421 443 -23 73 -27 108 -31 264 -7 225 17 443 67 625 5 19 21 80
36 135 14 55 59 201 100 324 42 127 83 272 94 334 54 300 -1 559 -167 782
-199 269 -609 457 -1108 510 -544 58 -1191 -46 -1705 -272 -142 -62 -233 -114
-413 -235 -65 -44 -121 -78 -124 -75 -2 3 0 13 6 24 24 40 170 458 240 688
169 552 241 879 263 1202 39 569 -104 1059 -425 1458 -93 115 -305 319 -427
409 -486 361 -1129 554 -1601 481z"/>
</g>
</svg>
